<?xml version="1.0" standalone="no"?>
<!DOCTYPE svg PUBLIC "-//W3C//DTD SVG 20010904//EN"
 "http://www.w3.org/TR/2001/REC-SVG-20010904/DTD/svg10.dtd">
<svg version="1.0" xmlns="http://www.w3.org/2000/svg"
 width="512.000000pt" height="512.000000pt" viewBox="0 0 512.000000 512.000000"
 preserveAspectRatio="xMidYMid meet">

<g transform="translate(0.000000,512.000000) scale(0.100000,-0.100000)"
fill="#000000" stroke="none">
<path d="M301 4679 c-109 -21 -212 -102 -263 -207 l-33 -67 0 -1500 0 -1500
33 -67 c53 -109 153 -186 271 -208 32 -6 258 -10 555 -10 l501 0 435 -340 435
-340 3 340 2 340 235 0 235 0 0 75 0 75 -310 0 -310 0 -2 -261 -3 -261 -334
261 -335 260 -550 3 c-542 3 -552 3 -591 25 -51 27 -79 57 -104 113 -20 45
-21 57 -21 1496 l0 1450 28 55 c30 60 85 105 148 119 21 5 126 10 232 10 l193
0 -3 73 -3 72 -200 2 c-110 0 -220 -3 -244 -8z"/>
<path d="M900 4615 l0 -75 1268 -2 1267 -3 40 -22 c101 -54 125 -108 125 -283
0 -122 -1 -131 -18 -128 -11 2 -67 56 -126 120 l-107 117 -47 -18 c-26 -11
-123 -51 -217 -90 l-170 -70 0 -170 0 -170 -75 -76 -75 -76 -168 3 -168 3 -34
-80 -33 -80 -216 -3 -217 -2 -134 96 c-74 53 -135 98 -135 99 0 1 8 17 17 36
25 50 22 154 -6 212 -50 103 -140 161 -251 160 -77 0 -122 -17 -180 -70 -153
-137 -103 -392 88 -457 57 -20 142 -20 186 -2 l34 14 166 -119 166 -119 210 0
209 0 -26 -60 c-21 -49 -23 -63 -13 -75 11 -13 -51 -15 -560 -15 l-572 0 -134
96 c-74 52 -134 97 -134 99 0 1 7 20 16 41 40 94 8 220 -75 297 -56 53 -105
71 -187 71 -78 0 -139 -30 -197 -94 -123 -137 -75 -353 97 -431 49 -22 152
-25 200 -5 l32 14 165 -119 164 -118 685 -1 c802 -1 730 10 730 -114 l0 -76
-580 0 -580 0 0 -75 0 -75 539 -2 540 -3 -80 -70 c-64 -57 -78 -74 -74 -92 l5
-23 -386 0 -387 0 -168 -120 -169 -121 -50 17 c-92 30 -200 2 -274 -72 -56
-56 -76 -105 -76 -190 -1 -300 400 -380 523 -105 25 56 26 151 3 205 -9 22
-15 40 -14 41 2 1 61 43 132 93 l128 92 406 -2 405 -3 48 -115 47 -115 167 3
168 3 54 -53 c29 -29 53 -56 53 -60 0 -4 -232 -8 -515 -8 l-514 0 -166 -140
c-91 -78 -165 -144 -165 -148 0 -4 22 -31 48 -59 l47 -53 145 125 145 125 510
0 510 0 0 -110 0 -111 217 -90 216 -90 45 48 c24 26 73 81 108 120 93 106 99
103 99 -59 0 -108 -4 -141 -19 -174 -24 -53 -91 -109 -146 -123 -27 -7 -149
-11 -310 -11 l-266 0 3 -72 3 -73 260 -3 c280 -3 347 4 426 43 62 32 133 106
167 174 25 53 27 66 30 213 4 158 4 158 27 158 20 0 107 -86 235 -233 6 -7
291 104 425 165 l27 12 -7 164 -8 164 79 80 79 79 166 -7 166 -7 76 184 c41
101 83 201 91 221 l16 37 -120 108 -119 108 0 120 0 120 67 59 c37 32 91 81
119 108 l53 49 -92 221 -92 220 -166 -6 -165 -7 -79 79 -79 80 8 165 7 164
-73 31 c-41 17 -141 58 -222 92 l-149 61 -56 -63 c-32 -34 -79 -88 -107 -119
-36 -42 -57 -57 -77 -58 l-26 -1 -4 158 c-3 147 -5 160 -30 213 -53 107 -158
186 -277 209 -34 6 -499 10 -1297 10 l-1244 0 0 -75z m2505 -560 l97 -105 183
0 182 0 83 93 c46 50 89 98 96 105 9 11 34 4 137 -38 l126 -52 -5 -81 c-2 -45
-6 -109 -9 -143 l-4 -60 132 -132 c126 -126 134 -131 167 -127 19 2 83 7 141
9 l106 6 52 -125 51 -124 -53 -49 c-28 -26 -76 -70 -104 -97 l-53 -48 0 -182
0 -183 103 -93 c56 -51 103 -94 105 -95 2 -1 -20 -58 -49 -128 l-51 -125 -127
5 c-69 3 -133 7 -142 8 -10 2 -66 -47 -147 -128 l-130 -131 8 -140 c6 -101 5
-142 -4 -147 -6 -4 -62 -28 -124 -54 l-113 -46 -58 64 c-31 34 -74 82 -95 106
l-38 42 -183 0 -183 0 -94 -104 c-51 -57 -96 -105 -99 -105 -4 -1 -61 22 -128
50 l-121 51 6 147 6 146 -128 126 -129 126 -140 -8 c-77 -5 -142 -5 -146 -1
-17 19 -100 245 -93 251 5 4 53 47 107 95 l97 88 0 183 0 182 -92 83 c-51 46
-99 89 -107 96 -12 11 -7 31 34 131 26 65 51 121 54 125 3 4 69 3 146 -1 l140
-8 129 126 128 126 -6 147 -6 146 78 32 c42 18 95 40 117 50 22 10 43 19 47
19 3 1 50 -46 103 -104z m-1948 -95 c23 0 73 -52 82 -86 21 -74 -25 -143 -102
-151 -81 -9 -137 42 -137 125 0 64 71 130 125 117 11 -3 25 -5 32 -5z m-790
-305 c72 -20 99 -136 45 -196 -24 -27 -37 -33 -83 -37 -52 -4 -57 -2 -92 31
-33 31 -37 40 -37 85 0 60 32 106 83 121 32 9 41 8 84 -4z m409 -1501 c58 -28
86 -115 55 -173 -17 -31 -70 -61 -109 -61 -72 0 -122 52 -122 127 0 45 20 77
64 104 38 23 67 24 112 3z"/>
<path d="M4010 3835 l0 -75 75 0 75 0 0 75 0 75 -75 0 -75 0 0 -75z"/>
<path d="M3552 3619 c-248 -42 -475 -242 -559 -494 -23 -69 -27 -97 -27 -210
-1 -106 3 -144 22 -208 84 -292 301 -477 607 -518 149 -19 328 16 463 92 89
50 220 189 264 279 112 230 115 448 7 668 -41 84 -64 117 -127 180 -80 81
-160 136 -248 170 -117 47 -273 62 -402 41z m245 -154 c233 -44 400 -214 449
-454 66 -333 -176 -651 -517 -678 -278 -22 -540 168 -604 438 -56 238 58 511
260 625 140 78 260 98 412 69z"/>
<path d="M3230 2005 l0 -75 75 0 75 0 0 75 0 75 -75 0 -75 0 0 -75z"/>
<path d="M420 2795 l0 -75 380 0 380 0 0 75 0 75 -380 0 -380 0 0 -75z"/>
</g>
</svg>
