<?xml version="1.0" standalone="no"?>
<!DOCTYPE svg PUBLIC "-//W3C//DTD SVG 20010904//EN"
 "http://www.w3.org/TR/2001/REC-SVG-20010904/DTD/svg10.dtd">
<svg version="1.0" xmlns="http://www.w3.org/2000/svg"
 width="200.000000pt" height="200.000000pt" viewBox="0 0 200.000000 200.000000"
 preserveAspectRatio="xMidYMid meet">

<g transform="translate(0.000000,200.000000) scale(0.100000,-0.100000)"
fill="#000000" stroke="none">
<path d="M403 1721 c-67 -32 -137 -91 -166 -139 -22 -39 -7 -50 32 -22 74 52
176 75 248 57 60 -16 121 -61 130 -96 3 -14 17 -43 30 -63 12 -21 23 -47 23
-58 0 -17 -5 -19 -32 -15 -91 13 -126 39 -95 70 38 37 3 95 -56 95 -65 0 -101
-78 -83 -175 10 -53 80 -120 134 -129 23 -3 42 -11 42 -16 0 -5 -20 -19 -44
-31 -25 -11 -68 -45 -96 -75 -50 -53 -51 -56 -35 -74 24 -27 80 -43 122 -37
30 5 34 4 27 -11 -10 -22 -9 -64 5 -130 6 -33 7 -62 1 -77 -15 -40 -6 -230 13
-259 10 -14 17 -37 17 -51 0 -16 12 -39 30 -57 17 -16 30 -35 30 -42 0 -7 7
-21 15 -32 8 -10 15 -30 15 -44 0 -15 4 -30 9 -35 5 -6 7 -22 4 -37 -4 -22
-11 -27 -51 -32 -104 -14 -122 -18 -122 -27 0 -12 29 -17 165 -29 202 -17 594
-8 708 16 47 10 17 25 -69 35 -43 6 -81 12 -84 15 -11 12 -1 103 13 125 9 13
17 32 19 43 2 10 15 31 31 47 16 16 27 38 27 54 0 15 9 39 21 53 12 16 19 39
18 57 -1 16 3 41 8 55 6 15 7 56 3 100 -4 41 -4 87 1 103 4 16 8 32 7 36 -1 3
4 18 10 34 8 18 8 35 2 53 -15 39 -13 43 25 37 41 -7 120 20 129 44 13 32 -75
115 -156 151 -37 15 -35 29 3 37 48 11 91 40 119 82 34 49 36 147 4 190 -40
54 -134 35 -134 -27 0 -17 7 -33 17 -39 17 -9 17 -10 0 -29 -22 -25 -89 -44
-116 -34 -21 7 -21 8 10 72 18 36 35 72 39 80 4 8 26 28 49 45 36 25 54 30
116 33 67 4 81 1 137 -27 35 -17 71 -36 80 -43 28 -20 34 1 12 40 -30 51 -111
116 -178 141 -65 24 -174 28 -240 9 -72 -21 -230 -202 -196 -223 17 -11 11
-25 -12 -25 -12 0 -30 8 -40 17 -30 27 -141 28 -187 1 -24 -14 -44 -19 -56
-14 -16 6 -17 9 -5 16 36 22 -84 181 -165 219 -35 16 -64 21 -132 21 -77 0
-96 -4 -150 -29z m130 12 c-7 -2 -19 -2 -25 0 -7 3 -2 5 12 5 14 0 19 -2 13
-5z m120 -10 c-7 -2 -19 -2 -25 0 -7 3 -2 5 12 5 14 0 19 -2 13 -5z m724 1
c-3 -3 -12 -4 -19 -1 -8 3 -5 6 6 6 11 1 17 -2 13 -5z m-657 -32 l23 -18 -34
-22 -34 -21 -20 20 -20 20 24 20 c29 23 33 24 61 1z m631 -1 c23 -19 23 -19 5
-40 -18 -20 -20 -20 -50 -3 -17 9 -33 19 -36 20 -6 4 39 42 50 42 4 0 18 -9
31 -19z m-579 -48 c10 -9 18 -21 18 -27 0 -9 -81 -61 -84 -54 -1 2 -9 13 -19
25 -18 21 -18 22 20 47 45 31 42 30 65 9z m484 8 c-4 -5 2 -7 11 -5 10 2 29
-4 42 -15 24 -18 24 -20 8 -45 l-18 -26 -42 21 c-23 12 -44 23 -45 25 -6 4 32
53 41 54 5 0 6 -4 3 -9z m-427 -87 c6 -15 9 -29 6 -32 -3 -3 -5 0 -5 6 0 7 -9
21 -20 32 -13 13 -16 20 -7 20 8 0 19 -12 26 -26z m427 4 l43 -21 -21 -31
c-12 -17 -22 -32 -23 -34 -2 -1 -15 3 -29 10 -20 8 -26 17 -22 30 3 10 9 27
12 38 5 14 2 20 -10 20 -9 0 -16 -4 -16 -8 0 -5 -7 -17 -15 -28 -14 -17 -14
-15 0 14 18 38 24 39 81 10z m-463 -20 c16 -32 15 -34 -6 -50 -31 -25 -43 -22
-57 12 -7 16 -16 27 -21 24 -5 -3 -9 -3 -9 1 0 6 61 45 71 45 4 0 14 -15 22
-32z m-238 -24 c20 -21 13 -29 -13 -15 -12 6 -30 11 -42 11 -12 0 -18 5 -15
10 10 16 52 12 70 -6z m960 6 c3 -5 -2 -10 -12 -10 -10 0 -29 -7 -41 -16 -19
-13 -22 -13 -22 0 0 27 61 49 75 26z m-990 -30 c9 -15 -12 -47 -35 -53 -17 -4
-19 -2 -14 21 4 15 9 30 11 35 6 10 31 9 38 -3z m563 -13 c10 -9 22 -17 27
-17 23 0 105 -46 110 -61 3 -10 19 -21 36 -24 28 -6 68 -49 56 -61 -3 -3 3
-14 14 -25 10 -10 19 -27 19 -37 0 -9 9 -23 20 -30 39 -24 21 -126 -25 -138
-60 -15 -118 35 -81 71 22 23 20 25 -12 13 -16 -6 -41 -8 -56 -4 -22 5 -26 10
-20 29 6 19 5 20 -9 9 -9 -8 -29 -12 -44 -11 -15 2 -39 -4 -53 -13 -14 -9 -45
-16 -70 -16 -25 0 -56 7 -70 16 -14 9 -37 15 -52 13 -14 -1 -30 4 -34 11 -6 9
-10 6 -14 -12 -4 -19 -13 -26 -39 -28 -18 -2 -39 2 -47 9 -8 6 -14 7 -14 1 0
-5 7 -15 15 -22 20 -17 19 -26 -5 -50 -24 -24 -82 -27 -100 -5 -7 9 -15 38
-18 65 -4 41 -1 50 17 62 11 7 21 22 21 33 0 12 5 26 12 33 7 7 17 27 22 44 9
26 19 35 47 42 21 5 39 17 45 30 5 11 24 25 42 31 17 5 32 13 32 17 0 4 9 8
20 8 11 0 29 9 39 19 25 25 140 24 169 -2z m440 -14 c3 -28 1 -31 -18 -26 -25
7 -35 26 -26 49 10 27 41 12 44 -23z m-728 -11 c0 -13 -12 -22 -22 -16 -10 6
-1 24 13 24 5 0 9 -4 9 -8z m430 -12 c0 -5 -7 -7 -15 -4 -8 4 -12 10 -9 15 6
11 24 2 24 -11z m-715 -20 c-28 -12 -37 -12 -30 0 3 6 16 10 28 9 21 0 21 -1
2 -9z m1006 -7 c13 -15 12 -15 -11 -3 -34 17 -36 20 -18 20 9 0 22 -7 29 -17z
m-247 -1 c3 -5 -1 -9 -9 -9 -8 0 -15 4 -15 9 0 4 4 8 9 8 6 0 12 -4 15 -8z
m-726 -18 c22 -15 22 -17 6 -35 -17 -19 -18 -19 -41 2 -17 17 -20 25 -12 36
15 17 20 16 47 -3z m946 10 c22 -9 20 -30 -6 -48 -20 -14 -23 -14 -36 6 -14
19 -13 22 3 34 22 16 19 16 39 8z m-920 -58 c-9 -15 -19 -24 -22 -22 -2 3 3
17 12 32 10 14 20 23 23 21 2 -3 -3 -17 -13 -31z m875 -15 c-3 -7 -13 3 -23
21 l-19 33 23 -21 c12 -12 21 -27 19 -33z m-790 23 c2 -2 -3 -14 -12 -27 -12
-18 -22 -23 -41 -20 -29 6 -31 14 -15 45 8 15 17 18 37 13 15 -4 29 -8 31 -11z
m749 4 c19 -19 14 -45 -10 -51 -15 -4 -26 -1 -31 10 -8 13 -11 13 -19 2 -8
-11 -8 -10 -4 4 3 10 6 22 6 27 0 7 12 13 41 19 3 0 10 -4 17 -11z m-804 -200
c9 -35 8 -38 -14 -38 -26 0 -72 -23 -91 -46 -13 -16 -12 -16 18 -1 39 21 83
22 108 3 18 -13 17 -14 -10 -32 -39 -25 -127 -26 -152 -2 -16 17 -16 19 3 45
20 27 108 93 124 93 4 0 10 -10 14 -22z m854 3 c51 -26 106 -86 99 -105 -15
-39 -111 -45 -164 -11 -25 17 -26 18 -8 31 25 19 69 18 108 -3 30 -15 31 -15
18 1 -19 23 -65 46 -91 46 -22 0 -23 3 -14 38 8 27 6 27 52 3z m-458 -14 c36
0 80 4 97 8 20 4 51 2 79 -6 60 -18 74 -35 29 -35 -41 0 -70 -24 -86 -71 -9
-28 -8 -38 5 -58 20 -30 50 -32 94 -5 29 18 36 34 35 78 -1 6 4 12 11 12 58
-1 36 -103 -38 -167 -138 -122 -424 -87 -495 60 -18 38 -29 97 -17 97 2 0 11
3 20 6 12 5 16 -1 16 -24 0 -58 86 -104 124 -66 51 50 -31 168 -94 134 -19
-10 -20 -10 -8 9 7 12 20 21 28 21 9 0 24 6 35 13 13 11 28 11 59 4 23 -6 70
-10 106 -10z m-154 -68 c9 -15 -11 -33 -30 -26 -9 4 -13 13 -10 22 7 17 30 20
40 4z m352 -12 c2 -12 -3 -17 -17 -17 -12 0 -21 6 -21 13 0 31 32 34 38 4z
m-508 -37 c0 -67 68 -153 150 -189 145 -64 336 -32 423 70 32 36 57 96 57 133
0 9 6 16 13 16 18 -1 69 -49 62 -59 -3 -5 -1 -12 5 -16 13 -8 13 -72 0 -80 -5
-3 -10 -20 -10 -36 0 -33 -47 -89 -74 -89 -9 0 -16 -6 -16 -14 0 -20 -48 -56
-73 -56 -11 0 -29 -7 -39 -16 -10 -9 -32 -18 -50 -19 -18 -1 -40 -4 -48 -8
-13 -6 -111 -4 -222 6 -20 1 -45 10 -56 20 -10 9 -29 17 -41 17 -22 0 -71 40
-71 58 0 5 -14 15 -30 22 -38 16 -60 46 -60 83 0 16 -5 38 -11 49 -8 15 -8 27
2 47 7 14 13 31 13 37 1 15 47 53 64 54 7 0 12 -13 12 -30z m-58 -266 c-7 -36
-22 -39 -22 -5 0 22 4 31 13 28 6 -2 10 -13 9 -23z m756 -54 c1 -38 -4 -72 -9
-76 -6 -3 -8 -18 -4 -32 3 -18 -2 -39 -17 -62 -12 -19 -22 -42 -23 -50 -1 -8
-2 -23 -3 -32 -1 -10 -11 -22 -23 -28 -20 -11 -21 -10 -16 64 2 46 10 84 20
100 10 14 17 31 17 37 0 7 8 18 17 25 13 9 19 28 20 71 1 32 2 59 3 61 0 2 4
1 9 -2 5 -3 9 -37 9 -76z m-694 25 c9 -14 34 -33 54 -42 20 -8 49 -22 64 -29
15 -8 40 -13 55 -12 16 1 35 -2 42 -6 20 -13 153 -15 176 -3 11 6 33 10 49 9
16 -2 38 4 50 11 12 8 36 18 54 22 19 4 43 20 60 41 15 19 33 34 40 34 20 0
15 -65 -8 -85 -11 -10 -20 -24 -20 -31 0 -22 -51 -74 -72 -74 -22 0 -63 -29
-110 -77 -17 -18 -37 -33 -44 -33 -7 0 -25 -12 -39 -26 -30 -30 -70 -27 -94 6
-7 11 -21 20 -30 20 -9 0 -29 13 -46 29 -70 68 -87 81 -110 81 -24 0 -75 50
-75 74 0 7 -9 21 -20 31 -12 11 -20 31 -20 52 0 40 20 44 44 8z m-64 -39 c0
-8 7 -19 16 -26 29 -25 44 -81 44 -166 0 -48 -4 -84 -10 -84 -13 0 -42 58 -37
73 2 7 -5 25 -15 40 -14 19 -19 38 -15 60 2 18 0 42 -6 54 -11 25 -1 77 13 68
6 -3 10 -12 10 -19z m112 -181 c-7 -57 62 -99 100 -61 12 11 17 11 33 0 16
-12 17 -21 9 -80 l-9 -66 -72 -1 -72 -2 -6 30 c-3 16 -8 77 -12 134 -6 100 -6
103 13 91 15 -9 19 -21 16 -45z m532 -12 c-3 -58 -11 -127 -20 -173 -4 -24 -8
-25 -75 -25 -78 0 -74 -4 -82 86 -3 38 -1 48 16 58 14 9 22 10 30 2 37 -37
114 14 104 68 -6 27 0 37 24 40 3 1 4 -25 3 -56z m-232 -115 c-13 -12 -92 -13
-92 0 0 4 22 7 50 7 27 0 46 -3 42 -7z m-6 -70 c-3 -18 -8 -52 -12 -75 -6 -39
-9 -43 -35 -43 -16 0 -29 6 -30 13 0 6 -2 40 -5 75 l-6 62 47 0 47 0 -6 -32z
m-206 -33 c0 -9 -9 -15 -25 -15 -16 0 -25 6 -25 15 0 9 9 15 25 15 16 0 25 -6
25 -15z m374 0 c-4 -8 -17 -15 -30 -15 -15 0 -24 6 -24 15 0 10 10 15 30 15
22 0 28 -4 24 -15z m-354 -60 c0 -23 -4 -25 -45 -25 -41 0 -45 2 -45 25 0 23
4 25 45 25 41 0 45 -2 45 -25z m380 0 c0 -23 -3 -25 -47 -25 -44 0 -48 2 -48
25 0 23 4 25 48 25 44 0 47 -2 47 -25z"/>
<path d="M965 950 c-2 -4 5 -14 16 -23 11 -10 17 -22 14 -27 -9 -14 -21 -12
-39 6 -14 13 -16 14 -16 0 0 -22 18 -29 63 -28 40 2 67 16 67 35 0 5 -8 3 -18
-6 -10 -10 -24 -17 -30 -17 -17 0 -15 25 3 40 8 7 15 15 15 19 0 8 -70 9 -75
1z"/>
</g>
</svg>
