<?xml version="1.0" standalone="no"?>
<!DOCTYPE svg PUBLIC "-//W3C//DTD SVG 20010904//EN"
 "http://www.w3.org/TR/2001/REC-SVG-20010904/DTD/svg10.dtd">
<svg version="1.0" xmlns="http://www.w3.org/2000/svg"
 width="512.000000pt" height="512.000000pt" viewBox="0 0 512.000000 512.000000"
 preserveAspectRatio="xMidYMid meet">

<g transform="translate(0.000000,512.000000) scale(0.100000,-0.100000)"
fill="#000000" stroke="none">
<path d="M4264 4960 c-101 -21 -195 -95 -237 -189 -22 -49 -29 -158 -14 -217
8 -30 7 -31 -157 -147 -90 -65 -167 -124 -170 -133 -3 -9 -6 -171 -6 -361 0
-272 -3 -344 -12 -340 -7 3 -55 24 -106 46 -133 59 -298 114 -447 149 -134 32
-316 62 -378 62 -19 0 -49 3 -66 6 l-31 7 0 243 0 243 53 24 c69 31 123 86
156 156 21 46 26 70 26 136 -1 96 -26 156 -93 223 -65 65 -120 87 -222 87
-102 0 -157 -22 -222 -87 -70 -69 -93 -127 -93 -228 1 -72 5 -93 28 -137 36
-69 88 -120 154 -150 l53 -24 0 -245 c0 -134 -2 -244 -4 -244 -28 0 -232 -24
-301 -36 -190 -32 -497 -124 -617 -185 l-38 -19 0 329 c0 181 -3 336 -6 345
-3 9 -80 68 -170 133 -164 116 -165 117 -157 147 17 64 8 158 -19 217 -54 117
-158 184 -288 184 -127 0 -227 -62 -287 -178 -24 -45 -28 -64 -28 -137 1 -100
24 -160 90 -225 64 -64 125 -89 220 -90 71 0 88 4 148 33 l68 34 134 -97 135
-96 0 -337 0 -337 -91 -49 c-333 -183 -679 -447 -971 -743 -181 -184 -181
-162 0 -346 221 -224 456 -418 705 -581 l117 -78 0 -224 0 -224 -84 0 -85 0
-24 53 c-30 66 -81 118 -150 154 -44 23 -65 27 -137 28 -101 0 -159 -23 -228
-93 -65 -65 -87 -120 -87 -222 0 -102 22 -157 87 -222 67 -67 127 -92 223 -93
66 0 90 5 136 26 70 33 125 87 156 156 l24 53 140 0 c135 0 141 1 164 25 l25
24 0 231 c0 126 2 230 4 230 2 0 73 -33 157 -74 248 -119 470 -193 719 -237
63 -11 125 -23 138 -25 l22 -4 0 -285 0 -285 -84 0 -85 0 -24 53 c-30 66 -81
118 -150 154 -44 23 -65 27 -137 28 -101 0 -159 -23 -228 -93 -65 -65 -87
-120 -87 -222 0 -102 22 -157 87 -222 67 -67 127 -92 223 -93 66 0 90 5 136
26 70 33 125 87 156 156 l24 53 140 0 c135 0 141 1 164 25 l25 24 0 336 0 335
89 0 c143 0 432 36 534 66 16 5 17 -13 17 -275 l0 -280 -53 -24 c-66 -30 -118
-81 -154 -150 -23 -44 -27 -65 -28 -137 0 -101 23 -159 93 -228 65 -65 120
-87 222 -87 102 0 157 22 222 87 67 67 92 127 93 223 0 66 -5 90 -26 136 -33
70 -87 125 -156 156 l-53 24 0 302 0 302 137 50 c147 54 381 164 506 238 l77
46 0 -280 0 -280 25 -24 c23 -24 29 -25 164 -25 l140 0 24 -53 c52 -115 158
-182 287 -182 127 0 227 62 287 178 23 44 27 65 27 137 1 100 -23 159 -89 225
-66 66 -125 90 -225 89 -72 0 -93 -4 -137 -27 -69 -36 -120 -88 -150 -154
l-24 -53 -85 0 -84 0 0 278 1 277 82 56 c160 110 344 266 530 449 171 169 187
188 187 219 0 31 -15 49 -132 169 -282 285 -587 524 -895 701 l-93 53 0 358 0
358 135 97 134 97 68 -34 c60 -29 77 -33 148 -33 60 0 91 6 127 22 184 84 248
314 135 479 -70 101 -206 158 -323 134z m-3314 -182 c48 -25 90 -89 90 -138 0
-14 -10 -46 -22 -70 -25 -48 -89 -90 -138 -90 -14 0 -46 10 -70 23 -48 24 -90
88 -90 137 0 14 10 46 23 70 24 48 88 90 137 90 14 0 46 -10 70 -22z m1680 0
c48 -25 90 -89 90 -138 0 -14 -10 -46 -22 -70 -25 -48 -89 -90 -138 -90 -49 0
-113 42 -137 90 -13 24 -23 56 -23 70 0 49 42 113 90 138 24 12 56 22 70 22
14 0 46 -10 70 -22z m1760 0 c48 -25 90 -89 90 -138 0 -14 -10 -46 -22 -70
-25 -48 -89 -90 -138 -90 -14 0 -46 10 -70 23 -48 24 -90 88 -90 137 0 14 10
46 23 70 24 48 88 90 137 90 14 0 46 -10 70 -22z m-1910 -1263 l0 -155 -120 0
-120 0 0 135 0 134 41 11 c66 18 121 28 162 29 l37 1 0 -155z m270 145 c29 -6
70 -15 92 -20 l38 -11 0 -134 0 -135 -120 0 -120 0 0 155 0 155 29 0 c15 0 52
-5 81 -10z m-670 -195 l0 -105 -135 0 c-131 0 -137 -1 -160 -25 -24 -23 -25
-29 -25 -160 l0 -135 -105 0 -106 0 27 48 c112 194 250 334 437 444 34 20 63
37 65 37 1 1 2 -46 2 -104z m1114 12 c126 -85 255 -227 338 -372 l37 -65 -104
0 -105 0 0 135 c0 131 -1 137 -25 160 -23 24 -29 25 -160 25 l-135 0 0 105 0
106 48 -27 c26 -15 74 -46 106 -67z m-1583 -63 c-135 -145 -239 -337 -293
-541 -30 -113 -32 -127 -32 -313 0 -186 2 -200 32 -313 54 -204 162 -404 296
-545 38 -39 65 -72 60 -72 -5 0 -81 35 -169 79 -267 130 -490 273 -742 476
-126 101 -332 288 -380 345 -24 30 -24 30 -6 54 34 43 240 232 351 324 257
210 488 360 757 493 99 49 184 89 188 89 5 0 -23 -34 -62 -76z m2004 -2 c269
-133 492 -276 742 -477 132 -106 329 -285 377 -342 l28 -33 -28 -32 c-42 -51
-229 -222 -345 -318 -251 -205 -483 -357 -753 -491 -98 -49 -183 -89 -189 -89
-5 0 21 33 59 73 145 153 248 348 305 577 20 82 23 119 23 280 0 161 -3 198
-23 280 -57 230 -160 426 -305 578 -38 39 -64 72 -59 72 5 0 81 -35 168 -78z
m-1855 -652 l0 -120 -155 0 -155 0 0 29 c0 31 14 113 30 173 l11 38 134 0 135
0 0 -120z m1120 -200 l0 -320 -320 0 -320 0 0 222 0 223 97 97 98 98 222 0
223 0 0 -320z m760 282 c16 -60 30 -142 30 -173 l0 -29 -155 0 -155 0 0 120 0
120 135 0 134 0 11 -38z m-1880 -482 l0 -120 -135 0 -134 0 -11 38 c-16 60
-30 142 -30 173 l0 29 155 0 155 0 0 -120z m1910 91 c0 -31 -14 -113 -30 -173
l-11 -38 -134 0 -135 0 0 120 0 120 155 0 155 0 0 -29z m-1910 -506 c0 -131 1
-137 25 -160 23 -24 29 -25 160 -25 l135 0 0 -104 0 -105 -59 34 c-185 104
-328 247 -433 430 l-37 65 104 0 105 0 0 -135z m1772 70 c-105 -184 -249 -326
-444 -439 l-48 -27 0 106 0 105 135 0 c131 0 137 1 160 25 24 23 25 29 25 160
l0 135 105 0 104 0 -37 -65z m-1052 -410 l0 -155 -29 0 c-31 0 -113 14 -173
30 l-38 11 0 134 0 135 120 0 120 0 0 -155z m400 20 l0 -134 -38 -11 c-60 -16
-142 -30 -173 -30 l-29 0 0 155 0 155 120 0 120 0 0 -135z m-2170 -287 c48
-25 90 -89 90 -138 0 -49 -42 -113 -90 -137 -24 -13 -56 -23 -70 -23 -14 0
-46 10 -70 23 -48 24 -90 88 -90 137 0 49 42 113 90 138 24 12 56 22 70 22 14
0 46 -10 70 -22z m4000 0 c48 -25 90 -89 90 -138 0 -49 -42 -113 -90 -137 -24
-13 -56 -23 -70 -23 -49 0 -113 42 -137 90 -13 24 -23 56 -23 70 0 49 42 113
90 138 24 12 56 22 70 22 14 0 46 -10 70 -22z m-2800 -560 c48 -25 90 -89 90
-138 0 -14 -10 -46 -22 -70 -25 -48 -89 -90 -138 -90 -14 0 -46 10 -70 23 -48
24 -90 88 -90 137 0 14 10 46 23 70 24 48 88 90 137 90 14 0 46 -10 70 -22z
m1360 -160 c48 -25 90 -89 90 -138 0 -49 -42 -113 -90 -137 -24 -13 -56 -23
-70 -23 -14 0 -46 10 -70 23 -48 24 -90 88 -90 137 0 14 10 46 23 70 24 48 88
90 137 90 14 0 46 -10 70 -22z"/>
</g>
</svg>
